<svg width="403" height="324" viewBox="0 0 403 324" fill="none" xmlns="http://www.w3.org/2000/svg">
<path d="M159.5 162C159.5 206.675 150.557 247.096 136.12 276.33C121.668 305.595 101.797 323.5 80 323.5C58.2033 323.5 38.3318 305.595 23.8798 276.33C9.44337 247.096 0.5 206.675 0.5 162C0.5 117.325 9.44337 76.9038 23.8798 47.6701C38.3318 18.4047 58.2033 0.5 80 0.5C101.797 0.5 121.668 18.4047 136.12 47.6701C150.557 76.9038 159.5 117.325 159.5 162Z" stroke="url(#paint0_linear_1734_14693)"/>
<path d="M251.5 162C251.5 200.044 243.509 234.462 230.614 259.351C217.706 284.264 199.962 299.5 180.5 299.5C161.038 299.5 143.294 284.264 130.386 259.351C117.491 234.462 109.5 200.044 109.5 162C109.5 123.956 117.491 89.5378 130.386 64.6493C143.294 39.7357 161.038 24.5 180.5 24.5C199.962 24.5 217.706 39.7357 230.614 64.6493C243.509 89.5378 251.5 123.956 251.5 162Z" stroke="url(#paint1_linear_1734_14693)"/>
<path d="M321.5 162C321.5 191.764 315.634 218.687 306.173 238.149C296.696 257.645 283.699 269.5 269.5 269.5C255.301 269.5 242.304 257.645 232.827 238.149C223.366 218.687 217.5 191.764 217.5 162C217.5 132.235 223.366 105.313 232.827 85.8511C242.304 66.3547 255.301 54.5 269.5 54.5C283.699 54.5 296.696 66.3547 306.173 85.8511C315.634 105.313 321.5 132.235 321.5 162Z" stroke="url(#paint2_linear_1734_14693)"/>
<path d="M362.5 162.5C362.5 186.617 358.701 208.427 352.576 224.191C349.512 232.074 345.877 238.419 341.866 242.786C337.855 247.151 333.507 249.5 329 249.5C324.493 249.5 320.145 247.151 316.134 242.786C312.123 238.419 308.488 232.074 305.424 224.191C299.299 208.427 295.5 186.617 295.5 162.5C295.5 138.383 299.299 116.573 305.424 100.809C308.488 92.926 312.123 86.5805 316.134 82.2144C320.145 77.8488 324.493 75.5 329 75.5C333.507 75.5 337.855 77.8488 341.866 82.2144C345.877 86.5805 349.512 92.926 352.576 100.809C358.701 116.573 362.5 138.383 362.5 162.5Z" stroke="url(#paint3_linear_1734_14693)"/>
<path d="M402.5 173.5C402.5 190.994 399.987 206.81 395.939 218.234C393.914 223.949 391.514 228.538 388.875 231.689C386.233 234.842 383.401 236.5 380.5 236.5C377.599 236.5 374.767 234.842 372.125 231.689C369.486 228.538 367.086 223.949 365.061 218.234C361.013 206.81 358.5 190.994 358.5 173.5C358.5 156.006 361.013 140.19 365.061 128.766C367.086 123.051 369.486 118.462 372.125 115.311C374.767 112.158 377.599 110.5 380.5 110.5C383.401 110.5 386.233 112.158 388.875 115.311C391.514 118.462 393.914 123.051 395.939 128.766C399.987 140.19 402.5 156.006 402.5 173.5Z" stroke="url(#paint4_linear_1734_14693)"/>
<defs>
<linearGradient id="paint0_linear_1734_14693" x1="-3.33507e-06" y1="178.5" x2="132.652" y2="201.094" gradientUnits="userSpaceOnUse">
<stop stop-color="#5429F2"/>
<stop offset="1" stop-color="#04022D"/>
</linearGradient>
<linearGradient id="paint1_linear_1734_14693" x1="109" y1="176.056" x2="228.521" y2="197.414" gradientUnits="userSpaceOnUse">
<stop stop-color="#5429F2"/>
<stop offset="1" stop-color="#04022D"/>
</linearGradient>
<linearGradient id="paint2_linear_1734_14693" x1="217" y1="173" x2="305.086" y2="187.769" gradientUnits="userSpaceOnUse">
<stop stop-color="#5429F2"/>
<stop offset="1" stop-color="#04022D"/>
</linearGradient>
<linearGradient id="paint3_linear_1734_14693" x1="295" y1="171.412" x2="352.615" y2="179.134" gradientUnits="userSpaceOnUse">
<stop stop-color="#5429F2"/>
<stop offset="1" stop-color="#04022D"/>
</linearGradient>
<linearGradient id="paint4_linear_1734_14693" x1="358" y1="179.968" x2="396.241" y2="184.641" gradientUnits="userSpaceOnUse">
<stop stop-color="#5429F2"/>
<stop offset="1" stop-color="#04022D"/>
</linearGradient>
</defs>
</svg>
