<svg width="80" height="80" viewBox="0 0 80 80" fill="none" xmlns="http://www.w3.org/2000/svg">
<path d="M43.3333 24.9934L33.3333 34.9934L46.6667 41.66L36.6667 51.66M66.6667 39.9934C66.6667 56.3549 48.8201 68.2547 42.3266 72.043C41.5887 72.4735 41.2197 72.6888 40.6989 72.8004C40.2948 72.8871 39.7052 72.8871 39.3011 72.8004C38.7803 72.6888 38.4113 72.4735 37.6734 72.043C31.1799 68.2547 13.3333 56.3549 13.3333 39.9934V24.0521C13.3333 21.387 13.3333 20.0545 13.7692 18.9091C14.1543 17.8972 14.78 16.9943 15.5922 16.2785C16.5117 15.4682 17.7593 15.0003 20.2547 14.0645L38.1274 7.3623C38.8203 7.10243 39.1668 6.97249 39.5233 6.92098C39.8395 6.8753 40.1606 6.8753 40.4767 6.92098C40.8332 6.97249 41.1797 7.10243 41.8727 7.3623L59.7453 14.0645C62.2407 15.0003 63.4884 15.4682 64.4078 16.2785C65.2201 16.9943 65.8458 17.8972 66.2308 18.9091C66.6667 20.0545 66.6667 21.387 66.6667 24.0521V39.9934Z" stroke="url(#paint0_linear_1311_7174)" stroke-opacity="0.8" stroke-width="6.66667" stroke-linecap="round" stroke-linejoin="round"/>
<defs>
<linearGradient id="paint0_linear_1311_7174" x1="64.8918" y1="25.1855" x2="0.850013" y2="29.888" gradientUnits="userSpaceOnUse">
<stop stop-color="#5BB0FF"/>
<stop offset="1" stop-color="#6F58FF"/>
</linearGradient>
</defs>
</svg>
